<?xml version="1.0" encoding="UTF-8" standalone="no"?>
<!-- Created with Inkscape (http://www.inkscape.org/) -->

<svg
   xmlns:dc="http://purl.org/dc/elements/1.1/"
   xmlns:cc="http://creativecommons.org/ns#"
   xmlns:rdf="http://www.w3.org/1999/02/22-rdf-syntax-ns#"
   xmlns:svg="http://www.w3.org/2000/svg"
   xmlns="http://www.w3.org/2000/svg"
   version="1.1"
   width="1052"
   height="744.1"
   id="svg2">
  <defs
     id="defs4">
    <clipPath
       id="clipPath3077">
      <path
         d="m 196.9,361.5 391,0 0,248.4 -415.2,-77.8 z"
         id="path3079"
         style="fill:#ffffff;stroke:#000000;stroke-width:1px;stroke-linecap:butt;stroke-linejoin:miter;stroke-opacity:1" />
    </clipPath>
  </defs>
  <metadata
     id="metadata7">
    <rdf:RDF>
      <cc:Work
         rdf:about="">
        <dc:format>image/svg+xml</dc:format>
        <dc:type
           rdf:resource="http://purl.org/dc/dcmitype/StillImage" />
        <dc:title></dc:title>
      </cc:Work>
    </rdf:RDF>
  </metadata>
  <g
     transform="translate(0,-308.3)"
     id="layer1">
    <g
       transform="translate(-4.043,-5.05)"
       clip-path="url(#clipPath3077)"
       id="g3001">
      <path
         d="m 464.6,370.2 41.4,0 0,244.3 -41.4,0 z"
         id="rect2985"
         style="fill:#0000ff;stroke:none" />
      <path
         d="m 411.2,370.2 41.4,0 0,244.3 -41.4,0 z"
         id="rect2993"
         style="fill:#cc00ff;stroke:none" />
      <path
         d="m 357.8,370.2 41.4,0 0,244.3 -41.4,0 z"
         id="rect2995"
         style="fill:#008000;stroke:none" />
      <path
         d="m 304.3,370.2 41.4,0 0,244.3 -41.4,0 z"
         id="rect2997"
         style="fill:#ff6600;stroke:none" />
      <path
         d="m 250.9,370.2 41.4,0 0,244.3 -41.4,0 z"
         id="rect2999"
         style="fill:#ff0000;stroke:none" />
    </g>
    <path
       d="m 285.2,405.9 c -10.2,6.1 -14.3,19.3 -9,30.5 l 0.7,1.1 c 4.7,8.6 13.9,13.2 23.2,12.2 L 417.2,652.5 434.8,642.4 317.6,439.1 c 4.3,-6.6 5.1,-15.5 1.5,-23.3 -5.6,-11.8 -19.8,-16.7 -31.8,-11.1 -0.6,0.4 -1.4,0.7 -2.1,1.2 z"
       id="rect3087"
       style="fill:#ffffff;fill-opacity:1;fill-rule:nonzero;stroke:none" />
    <text
       x="268.83868"
       y="650.99628"
       id="text3103"
       xml:space="preserve"
       style="font-size:47.198px;font-style:normal;font-weight:normal;line-height:125%;letter-spacing:0px;word-spacing:0px;fill:#000000;fill-opacity:1;stroke:none;font-family:Sans"><tspan
         x="268.83868"
         y="650.99628"
         id="tspan3105"
         style="font-style:normal;font-variant:normal;font-weight:normal;font-stretch:normal;font-family:Scoder Hand;-inkscape-font-specification:Scoder Hand">MALLETS</tspan></text>
  </g>
</svg>
